<?xml version="1.0" encoding="UTF-8"?>
<svg xmlns="http://www.w3.org/2000/svg" xmlns:xlink="http://www.w3.org/1999/xlink" viewBox="0 0 64 64" width="64px" height="64px">
<g id="surface25699173">
<path style=" stroke:none;fill-rule:nonzero;fill:rgb(100%,100%,100%);fill-opacity:1;" d="M 32 8 C 30.488281 8 29.035156 8.160156 27.636719 8.417969 L 26 8.722656 L 26 11.992188 L 27.425781 12.421875 C 32.351562 13.894531 36 18.554688 36 24 C 36 30.652344 30.652344 36 24 36 C 18.554688 36 13.886719 32.351562 12.414062 27.425781 L 11.984375 26 L 8.722656 26 L 8.417969 27.636719 C 8.160156 29.035156 8 30.488281 8 32 C 8 45.230469 18.769531 56 32 56 C 45.230469 56 56 45.230469 56 32 C 56 18.769531 45.230469 8 32 8 Z M 34.992188 12.601562 C 44.570312 14.09375 52 21.992188 52 32 C 52 43.070312 43.070312 52 32 52 C 21.996094 52 14.101562 44.574219 12.605469 35 C 15.542969 38 19.503906 40 24 40 C 32.8125 40 40 32.8125 40 24 C 40 19.5 38 15.535156 34.992188 12.601562 Z M 34.992188 12.601562 "/>
</g>
</svg>
