<?xml version="1.0" encoding="UTF-8"?>
<svg xmlns="http://www.w3.org/2000/svg" xmlns:xlink="http://www.w3.org/1999/xlink" viewBox="0 0 64 64" width="64px" height="64px">
<g id="surface25698956">
<path style=" stroke:none;fill-rule:nonzero;fill:rgb(100%,100%,100%);fill-opacity:1;" d="M 30 6 L 30 16 L 34 16 L 34 6 Z M 15 12.1875 L 12.1875 15 L 19.25 22.125 L 22.125 19.25 Z M 49 12.1875 L 41.875 19.25 L 44.75 22.125 L 51.8125 15 Z M 32 18 C 24.289062 18 18 24.289062 18 32 C 18 39.710938 24.289062 46 32 46 C 39.710938 46 46 39.710938 46 32 C 46 24.289062 39.710938 18 32 18 Z M 32 22 C 37.546875 22 42 26.453125 42 32 C 42 37.546875 37.546875 42 32 42 C 26.453125 42 22 37.546875 22 32 C 22 26.453125 26.453125 22 32 22 Z M 6 30 L 6 34 L 16 34 L 16 30 Z M 48 30 L 48 34 L 58 34 L 58 30 Z M 19.25 41.875 L 12.1875 49 L 15 51.8125 L 22.125 44.75 Z M 44.75 41.875 L 41.875 44.75 L 49 51.8125 L 51.8125 49 Z M 30 48 L 30 58 L 34 58 L 34 48 Z M 30 48 "/>
</g>
</svg>
